#!OML:ASF E:\motion texture\Top Level 1\Subject 1\Session 1\male.ASF
:FULLY-SPECIFIED
:DEGREES
374
root 19.5573 17.935 4.02113 80.5657 -81.8524 -71.7113
lowerback 0.0887928 1.60672 8.70971
upperback 0.392727 1.94379 4.99975
thorax 0.483333 0.918075 0.302697
lowerneck -13.2685 -3.82129 -8.22574
upperneck -9.51973 -4.09045 10.718
head -0.282342 -1.96991 4.45478
rclavicle 1.43125e-014 -5.56597e-015
rhumerus -36.7234 -30.6862 -62.7629
rradius 13.6785
rwrist 16.3631
rhand -19.422 -42.3327
rfingers 7.12502
rthumb 6.89783 -72.2003
lclavicle 1.43125e-014 -5.56597e-015
lhumerus -40.9497 18.9821 68.1803
lradius 19.0627
lwrist -29.8942
lhand -11.8168 27.5857
lfingers 7.12502
lthumb 14.2336 57.078
rfemur -9.00367 5.35715 31.7539
rtibia 15.5345
rfoot -10.6924 -9.84636
rtoes 14.402
lfemur -34.3507 -0.339261 -7.97877
ltibia 37.5841
lfoot -8.31374 3.40401
ltoes -16.2939
375
root 19.425 17.9233 4.02212 81.8232 -81.8355 -72.8967
lowerback 0.0604969 1.66879 8.80222
upperback 0.424538 2.01846 4.9869
thorax 0.540657 0.957522 0.241126
lowerneck -13.1876 -3.82827 -8.26597
upperneck -9.92743 -4.09129 10.7265
head -0.414288 -1.98211 4.47212
rclavicle 1.15295e-014 7.87187e-014
rhumerus -38.679 -33.2789 -59.6379
rradius 13.1384
rwrist 18.4308
rhand -19.1621 -42.5017
rfingers 7.12502
rthumb 7.14869 -72.3609
lclavicle 1.15295e-014 7.87187e-014
lhumerus -42.0195 20.1445 66.3973
lradius 18.7784
lwrist -30.2952
lhand -11.9071 27.768
lfingers 7.12502
lthumb 14.1465 57.2664
rfemur -8.57706 5.42457 31.895
rtibia 15.5214
rfoot -11.0363 -9.85372
rtoes 13.9878
lfemur -34.6516 -0.283634 -7.88923
ltibia 36.2143
lfoot -8.35331 3.63173
ltoes -16.283
376
root 19.2924 17.9107 4.02352 83.0692 -81.8143 -74.0685
lowerback 0.0301236 1.73131 8.89174
upperback 0.454153 2.09357 4.97445
thorax 0.597057 0.997175 0.181808
lowerneck -13.1037 -3.83482 -8.30857
upperneck -10.3461 -4.09186 10.7334
head -0.54998 -1.99444 4.48991
rclavicle -1.2921e-014 -6.75868e-014
rhumerus -40.8045 -35.7175 -56.3615
rradius 12.6795
rwrist 20.4351
rhand -18.9013 -42.7094
rfingers 7.12502
rthumb 7.40041 -72.56
lclavicle -1.2921e-014 -6.75868e-014
lhumerus -43.0837 21.1483 64.6829
lradius 18.5549
lwrist -30.6095
lhand -11.9986 27.9366
lfingers 7.12502
lthumb 14.0584 57.4411
rfemur -8.16063 5.48508 32.0325
rtibia 15.5252
rfoot -11.3807 -9.86058
rtoes 13.5553
lfemur -34.9322 -0.238531 -7.79472
ltibia 34.8471
lfoot -8.36853 3.84764
ltoes -16.2743
377
root 19.1595 17.8973 4.02537 84.3079 -81.7892 -75.2324
lowerback -0.0016838 1.79438 8.97869
upperback 0.482363 2.1693 4.96224
thorax 0.653015 1.03715 0.124355
lowerneck -13.0182 -3.84085 -8.35386
upperneck -10.7741 -4.09207 10.7393
head -0.688782 -2.00674 4.50834
rclavicle -1.0138e-014 3.4191e-014
rhumerus -43.09 -37.9875 -52.9475
rradius 12.29
rwrist 22.3648
rhand -18.6516 -42.9388
rfingers 7.12502
rthumb 7.64148 -72.7807
lclavicle -1.0138e-014 3.4191e-014
lhumerus -44.1285 21.9987 63.0521
lradius 18.3845
lwrist -30.8358
lhand -12.0916 28.0873
lfingers 7.12502
lthumb 13.9687 57.598
rfemur -7.75256 5.53874 32.1661
rtibia 15.5467
rfoot -11.7253 -9.86595
rtoes 13.1026
lfemur -35.191 -0.203857 -7.69581
ltibia 33.4913
lfoot -8.36217 4.05488
ltoes -16.2756
378
root 19.0261 17.8831 4.02769 85.5548 -81.7609 -76.4032
lowerback -0.0369876 1.85846 9.06272
upperback 0.509532 2.24595 4.94997
thorax 0.710077 1.07765 0.0687326
lowerneck -12.9322 -3.84644 -8.3999
upperneck -11.2108 -4.09237 10.7425
head -0.830337 -2.01925 4.5266
rclavicle 2.60408e-014 2.22639e-014
rhumerus -45.5087 -40.0646 -49.4335
rradius 11.9641
rwrist 24.191
rhand -18.4098 -43.194
rfingers 7.12502
rthumb 7.87486 -73.0273
lclavicle 2.60408e-014 2.22639e-014
lhumerus -45.1421 22.7057 61.5159
lradius 18.2599
lwrist -30.9752
lhand -12.185 28.215
lfingers 7.12502
lthumb 13.8787 57.732
rfemur -7.35532 5.58581 32.295
rtibia 15.5888
rfoot -12.0699 -9.86713
rtoes 12.6253
lfemur -35.4299 -0.178606 -7.59236
ltibia 32.1565
lfoot -8.33623 4.25375
ltoes -16.2686
379
root 18.8924 17.868 4.03045 86.8084 -81.7298 -77.5794
lowerback -0.0830094 1.92495 9.14308
upperback 0.53609 2.32439 4.93789
thorax 0.772767 1.11925 0.0159102
lowerneck -12.8234 -3.84997 -8.45006
upperneck -11.6684 -4.09083 10.7465
head -0.981674 -2.03153 4.54693
rclavicle 5.56597e-015 9.78021e-014
rhumerus -48.0275 -41.9225 -45.8692
rradius 11.6991
rwrist 25.8763
rhand -18.1621 -43.4853
rfingers 7.12502
rthumb 8.11387 -73.3096
lclavicle 5.56597e-015 9.78021e-014
lhumerus -46.1142 23.2791 60.0837
lradius 18.1735
lwrist -31.033
lhand -12.2771 28.328
lfingers 7.12502
lthumb 13.79 57.8509
rfemur -6.96704 5.629 32.4186
rtibia 15.6489
rfoot -12.4131 -9.86587
rtoes 12.1296
lfemur -35.6493 -0.163656 -7.48489
ltibia 30.8512
lfoot -8.29388 4.44815
ltoes -16.2544
380
root 18.7581 17.8523 4.03369 88.0668 -81.6964 -78.7603
lowerback -0.123693 1.99174 9.22011
upperback 0.562689 2.40387 4.92564
thorax 0.832691 1.16134 -0.0352319
lowerneck -12.7462 -3.85519 -8.50311
upperneck -12.1151 -4.09098 10.7499
head -1.12493 -2.04374 4.56722
rclavicle 1.66979e-014 4.05521e-014
rhumerus -50.6019 -43.5721 -42.2976
rradius 11.483
rwrist 27.416
rhand -17.9376 -43.7881
rfingers 7.12502
rthumb 8.33058 -73.6038
lclavicle 1.66979e-014 4.05521e-014
lhumerus -47.0334 23.7421 58.7578
lradius 18.1171
lwrist -31.0226
lhand -12.3691 28.4147
lfingers 7.12502
lthumb 13.7013 57.9436
rfemur -6.58839 5.66704 32.536
rtibia 15.7303
rfoot -12.7541 -9.86105
rtoes 11.6045
lfemur -35.8493 -0.16027 -7.37455
ltibia 29.5838
lfoot -8.23556 4.63695
ltoes -16.2356
